<svg xmlns="http://www.w3.org/2000/svg" x="0px" y="0px"
width="48" height="48"
viewBox="0 0 172 172"
style=" fill:#000000;"><g fill="none" fill-rule="nonzero" stroke="none" stroke-width="1" stroke-linecap="butt" stroke-linejoin="miter" stroke-miterlimit="10" stroke-dasharray="" stroke-dashoffset="0" font-family="none" font-weight="none" font-size="none" text-anchor="none" style="mix-blend-mode: normal"><path d="M0,172v-172h172v172z" fill="none"></path><g fill="#ffffff"><path d="M71.66667,14.33333c-7.90483,0 -14.33333,6.4285 -14.33333,14.33333v14.33333h-35.83333v93.16667c0,7.90483 6.4285,14.33333 14.33333,14.33333h100.33333c7.90483,0 14.33333,-6.4285 14.33333,-14.33333v-93.16667h-35.83333v-14.33333c0,-7.90483 -6.4285,-14.33333 -14.33333,-14.33333zM71.66667,28.66667h28.66667v14.33333h-28.66667zM35.83333,57.33333h100.33333l0.014,78.83333h-100.34733zM64.5,71.66667c-3.956,0 -7.16667,3.21067 -7.16667,7.16667c0,3.956 3.21067,7.16667 7.16667,7.16667c3.956,0 7.16667,-3.21067 7.16667,-7.16667c0,-3.956 -3.21067,-7.16667 -7.16667,-7.16667zM107.5,71.66667c-3.956,0 -7.16667,3.21067 -7.16667,7.16667c0,3.956 3.21067,7.16667 7.16667,7.16667c3.956,0 7.16667,-3.21067 7.16667,-7.16667c0,-3.956 -3.21067,-7.16667 -7.16667,-7.16667z"></path></g></g></svg>