<svg width="315" height="218" viewBox="0 0 315 218" fill="none" xmlns="http://www.w3.org/2000/svg">
<path d="M295 4H4V171H295V4Z" stroke="#171717" stroke-width="8"/>
<path d="M77.5625 30.625H85.6562C86.6771 30.625 87.7917 30.6771 89 30.7812C90.2292 30.8646 91.4479 31.0833 92.6562 31.4375C93.8854 31.7708 95.0625 32.2917 96.1875 33C97.3333 33.7083 98.3438 34.6771 99.2188 35.9062C100.094 37.1146 100.792 38.6354 101.312 40.4688C101.854 42.3021 102.125 44.5312 102.125 47.1562V49.0312C102.125 51.8854 101.875 54.3333 101.375 56.375C100.896 58.3958 100.25 60.1042 99.4375 61.5C98.625 62.875 97.6771 63.9792 96.5938 64.8125C95.5312 65.6458 94.4167 66.2812 93.25 66.7188C92.1042 67.1354 90.9375 67.4167 89.75 67.5625C88.5833 67.6875 87.4792 67.75 86.4375 67.75H85.6562V84H77.5625V30.625ZM86.0625 61.8125C87.5208 61.8125 88.75 61.6042 89.75 61.1875C90.75 60.75 91.5417 60.0833 92.125 59.1875C92.7292 58.2708 93.1562 57.1042 93.4062 55.6875C93.6771 54.25 93.8125 52.5312 93.8125 50.5312V45.7188C93.8125 44.1354 93.6979 42.7708 93.4688 41.625C93.2396 40.4583 92.8229 39.5 92.2188 38.75C91.6354 38 90.8438 37.4479 89.8438 37.0938C88.8438 36.7188 87.5833 36.5312 86.0625 36.5312H85.6562V61.8125H86.0625ZM121.69 30.625H129.784V84H121.69V30.625ZM163.161 84.5C162.536 84.5 161.807 84.4271 160.974 84.2812C160.14 84.1562 159.276 83.875 158.38 83.4375C157.505 83 156.64 82.3854 155.786 81.5938C154.932 80.7812 154.161 79.7188 153.474 78.4062C152.807 77.0729 152.265 75.4479 151.849 73.5312C151.432 71.5938 151.224 69.2917 151.224 66.625V47.7188C151.224 45.0312 151.442 42.7396 151.88 40.8438C152.317 38.9271 152.901 37.3229 153.63 36.0312C154.359 34.7188 155.192 33.6771 156.13 32.9062C157.088 32.1354 158.078 31.5521 159.099 31.1562C160.12 30.7396 161.13 30.4688 162.13 30.3438C163.13 30.2188 164.057 30.1562 164.911 30.1562C167.078 30.1562 168.901 30.4583 170.38 31.0625C171.88 31.6458 173.088 32.4583 174.005 33.5C174.942 34.5208 175.609 35.7188 176.005 37.0938C176.422 38.4688 176.63 39.9271 176.63 41.4688C176.63 42.6146 176.557 43.6771 176.411 44.6562C176.286 45.6146 176.109 46.6771 175.88 47.8438H169.411V45.3125C169.411 39.4583 167.838 36.5312 164.692 36.5312C163.838 36.5312 163.099 36.6771 162.474 36.9688C161.849 37.2604 161.328 37.7604 160.911 38.4688C160.495 39.1562 160.182 40.0729 159.974 41.2188C159.786 42.3646 159.692 43.7917 159.692 45.5V69.6875C159.692 71.3542 159.786 72.7396 159.974 73.8438C160.182 74.9479 160.484 75.8333 160.88 76.5C161.297 77.1667 161.807 77.6458 162.411 77.9375C163.036 78.2083 163.776 78.3438 164.63 78.3438C165.526 78.3438 166.297 78.1146 166.942 77.6562C167.588 77.1771 168.12 76.5312 168.536 75.7188C168.953 74.9062 169.255 73.9479 169.442 72.8438C169.651 71.7396 169.755 70.5417 169.755 69.25V62.2812H165.599V56.9688H177.63V84H172.255L171.38 78.9375C170.359 80.9167 169.182 82.3438 167.849 83.2188C166.536 84.0729 164.974 84.5 163.161 84.5ZM204.445 30.625H213.757L223.632 84H215.445L213.976 74.4375H204.226L202.82 84H194.601L204.445 30.625ZM213.039 68.3438L209.289 41.75H208.945L205.164 68.3438H213.039Z" fill="#999998"/>
<path d="M71.5625 92.625H79.6562V139.625H90.6875V146H71.5625V92.625ZM109.065 92.625H117.221V131.75C117.221 133.417 117.305 134.802 117.471 135.906C117.638 137.01 117.898 137.896 118.252 138.562C118.627 139.208 119.096 139.677 119.659 139.969C120.242 140.24 120.93 140.375 121.721 140.375C122.513 140.375 123.2 140.24 123.784 139.969C124.388 139.677 124.877 139.208 125.252 138.562C125.648 137.896 125.94 137.01 126.127 135.906C126.336 134.802 126.44 133.417 126.44 131.75V92.625H134.502V129.594C134.502 132.198 134.294 134.427 133.877 136.281C133.461 138.135 132.909 139.688 132.221 140.938C131.534 142.188 130.742 143.177 129.846 143.906C128.971 144.635 128.055 145.198 127.096 145.594C126.159 145.969 125.221 146.208 124.284 146.312C123.346 146.417 122.492 146.469 121.721 146.469C120.95 146.469 120.096 146.417 119.159 146.312C118.242 146.208 117.315 145.969 116.377 145.594C115.44 145.198 114.534 144.635 113.659 143.906C112.784 143.177 112.002 142.188 111.315 140.938C110.627 139.688 110.075 138.146 109.659 136.312C109.263 134.458 109.065 132.219 109.065 129.594V92.625ZM156.88 92.625H164.974V115.938H165.224L174.474 92.625H182.536L172.224 117.656L183.692 146H175.036L165.224 120.594H164.974V146H156.88V92.625ZM201.57 92.625H209.726V131.75C209.726 133.417 209.81 134.802 209.976 135.906C210.143 137.01 210.403 137.896 210.757 138.562C211.132 139.208 211.601 139.677 212.164 139.969C212.747 140.24 213.435 140.375 214.226 140.375C215.018 140.375 215.705 140.24 216.289 139.969C216.893 139.677 217.382 139.208 217.757 138.562C218.153 137.896 218.445 137.01 218.632 135.906C218.841 134.802 218.945 133.417 218.945 131.75V92.625H227.007V129.594C227.007 132.198 226.799 134.427 226.382 136.281C225.966 138.135 225.414 139.688 224.726 140.938C224.039 142.188 223.247 143.177 222.351 143.906C221.476 144.635 220.56 145.198 219.601 145.594C218.664 145.969 217.726 146.208 216.789 146.312C215.851 146.417 214.997 146.469 214.226 146.469C213.455 146.469 212.601 146.417 211.664 146.312C210.747 146.208 209.82 145.969 208.882 145.594C207.945 145.198 207.039 144.635 206.164 143.906C205.289 143.177 204.507 142.188 203.82 140.938C203.132 139.688 202.58 138.146 202.164 136.312C201.768 134.458 201.57 132.219 201.57 129.594V92.625Z" fill="#999998"/>
<path d="M27.91 199.08C29.11 199.46 30.05 200.1 30.73 201C31.41 201.88 31.75 202.97 31.75 204.27C31.75 206.11 31.03 207.53 29.59 208.53C28.17 209.51 26.09 210 23.35 210H12.49V189H22.75C25.31 189 27.27 189.49 28.63 190.47C30.01 191.45 30.7 192.78 30.7 194.46C30.7 195.48 30.45 196.39 29.95 197.19C29.47 197.99 28.79 198.62 27.91 199.08ZM17.32 192.66V197.61H22.15C23.35 197.61 24.26 197.4 24.88 196.98C25.5 196.56 25.81 195.94 25.81 195.12C25.81 194.3 25.5 193.69 24.88 193.29C24.26 192.87 23.35 192.66 22.15 192.66H17.32ZM22.99 206.34C24.27 206.34 25.23 206.13 25.87 205.71C26.53 205.29 26.86 204.64 26.86 203.76C26.86 202.02 25.57 201.15 22.99 201.15H17.32V206.34H22.99ZM49.1995 210.36C47.0195 210.36 45.0495 209.89 43.2895 208.95C41.5495 208.01 40.1795 206.72 39.1795 205.08C38.1995 203.42 37.7095 201.56 37.7095 199.5C37.7095 197.44 38.1995 195.59 39.1795 193.95C40.1795 192.29 41.5495 190.99 43.2895 190.05C45.0495 189.11 47.0195 188.64 49.1995 188.64C51.3795 188.64 53.3395 189.11 55.0795 190.05C56.8195 190.99 58.1895 192.29 59.1895 193.95C60.1895 195.59 60.6895 197.44 60.6895 199.5C60.6895 201.56 60.1895 203.42 59.1895 205.08C58.1895 206.72 56.8195 208.01 55.0795 208.95C53.3395 209.89 51.3795 210.36 49.1995 210.36ZM49.1995 206.22C50.4395 206.22 51.5595 205.94 52.5595 205.38C53.5595 204.8 54.3395 204 54.8995 202.98C55.4795 201.96 55.7695 200.8 55.7695 199.5C55.7695 198.2 55.4795 197.04 54.8995 196.02C54.3395 195 53.5595 194.21 52.5595 193.65C51.5595 193.07 50.4395 192.78 49.1995 192.78C47.9595 192.78 46.8395 193.07 45.8395 193.65C44.8395 194.21 44.0495 195 43.4695 196.02C42.9095 197.04 42.6295 198.2 42.6295 199.5C42.6295 200.8 42.9095 201.96 43.4695 202.98C44.0495 204 44.8395 204.8 45.8395 205.38C46.8395 205.94 47.9595 206.22 49.1995 206.22ZM77.1138 202.56V210H72.2538V202.5L64.1238 189H69.2838L74.8938 198.33L80.5038 189H85.2738L77.1138 202.56ZM97.3677 210.36C95.7077 210.36 94.0977 210.14 92.5377 209.7C90.9977 209.24 89.7577 208.65 88.8177 207.93L90.4677 204.27C91.3677 204.93 92.4377 205.46 93.6777 205.86C94.9177 206.26 96.1577 206.46 97.3977 206.46C98.7777 206.46 99.7977 206.26 100.458 205.86C101.118 205.44 101.448 204.89 101.448 204.21C101.448 203.71 101.248 203.3 100.848 202.98C100.468 202.64 99.9677 202.37 99.3477 202.17C98.7477 201.97 97.9277 201.75 96.8877 201.51C95.2877 201.13 93.9777 200.75 92.9577 200.37C91.9377 199.99 91.0577 199.38 90.3177 198.54C89.5977 197.7 89.2377 196.58 89.2377 195.18C89.2377 193.96 89.5677 192.86 90.2277 191.88C90.8877 190.88 91.8777 190.09 93.1977 189.51C94.5377 188.93 96.1677 188.64 98.0877 188.64C99.4277 188.64 100.738 188.8 102.018 189.12C103.298 189.44 104.418 189.9 105.378 190.5L103.878 194.19C101.938 193.09 99.9977 192.54 98.0577 192.54C96.6977 192.54 95.6877 192.76 95.0277 193.2C94.3877 193.64 94.0677 194.22 94.0677 194.94C94.0677 195.66 94.4377 196.2 95.1777 196.56C95.9377 196.9 97.0877 197.24 98.6277 197.58C100.228 197.96 101.538 198.34 102.558 198.72C103.578 199.1 104.448 199.7 105.168 200.52C105.908 201.34 106.278 202.45 106.278 203.85C106.278 205.05 105.938 206.15 105.258 207.15C104.598 208.13 103.598 208.91 102.258 209.49C100.918 210.07 99.2877 210.36 97.3677 210.36ZM130.155 192.9V198.45H139.875V202.35H130.155V210H125.295V189H141.165V192.9H130.155ZM161.006 205.5H151.256L149.396 210H144.416L153.776 189H158.576L167.966 210H162.866L161.006 205.5ZM159.476 201.81L156.146 193.77L152.816 201.81H159.476ZM180.645 210.36C178.985 210.36 177.375 210.14 175.815 209.7C174.275 209.24 173.035 208.65 172.095 207.93L173.745 204.27C174.645 204.93 175.715 205.46 176.955 205.86C178.195 206.26 179.435 206.46 180.675 206.46C182.055 206.46 183.075 206.26 183.735 205.86C184.395 205.44 184.725 204.89 184.725 204.21C184.725 203.71 184.525 203.3 184.125 202.98C183.745 202.64 183.245 202.37 182.625 202.17C182.025 201.97 181.205 201.75 180.165 201.51C178.565 201.13 177.255 200.75 176.235 200.37C175.215 199.99 174.335 199.38 173.595 198.54C172.875 197.7 172.515 196.58 172.515 195.18C172.515 193.96 172.845 192.86 173.505 191.88C174.165 190.88 175.155 190.09 176.475 189.51C177.815 188.93 179.445 188.64 181.365 188.64C182.705 188.64 184.015 188.8 185.295 189.12C186.575 189.44 187.695 189.9 188.655 190.5L187.155 194.19C185.215 193.09 183.275 192.54 181.335 192.54C179.975 192.54 178.965 192.76 178.305 193.2C177.665 193.64 177.345 194.22 177.345 194.94C177.345 195.66 177.715 196.2 178.455 196.56C179.215 196.9 180.365 197.24 181.905 197.58C183.505 197.96 184.815 198.34 185.835 198.72C186.855 199.1 187.725 199.7 188.445 200.52C189.185 201.34 189.555 202.45 189.555 203.85C189.555 205.05 189.215 206.15 188.535 207.15C187.875 208.13 186.875 208.91 185.535 209.49C184.195 210.07 182.565 210.36 180.645 210.36ZM215.736 189V210H210.876V201.39H201.336V210H196.476V189H201.336V197.28H210.876V189H215.736ZM224.304 189H229.164V210H224.304V189ZM247.918 210.36C245.738 210.36 243.768 209.89 242.008 208.95C240.268 208.01 238.898 206.72 237.898 205.08C236.918 203.42 236.428 201.56 236.428 199.5C236.428 197.44 236.918 195.59 237.898 193.95C238.898 192.29 240.268 190.99 242.008 190.05C243.768 189.11 245.738 188.64 247.918 188.64C250.098 188.64 252.058 189.11 253.798 190.05C255.538 190.99 256.908 192.29 257.908 193.95C258.908 195.59 259.408 197.44 259.408 199.5C259.408 201.56 258.908 203.42 257.908 205.08C256.908 206.72 255.538 208.01 253.798 208.95C252.058 209.89 250.098 210.36 247.918 210.36ZM247.918 206.22C249.158 206.22 250.278 205.94 251.278 205.38C252.278 204.8 253.058 204 253.618 202.98C254.198 201.96 254.488 200.8 254.488 199.5C254.488 198.2 254.198 197.04 253.618 196.02C253.058 195 252.278 194.21 251.278 193.65C250.278 193.07 249.158 192.78 247.918 192.78C246.678 192.78 245.558 193.07 244.558 193.65C243.558 194.21 242.768 195 242.188 196.02C241.628 197.04 241.348 198.2 241.348 199.5C241.348 200.8 241.628 201.96 242.188 202.98C242.768 204 243.558 204.8 244.558 205.38C245.558 205.94 246.678 206.22 247.918 206.22ZM285.92 189V210H281.93L271.46 197.25V210H266.66V189H270.68L281.12 201.75V189H285.92Z" fill="#999998"/>
<rect x="291" y="67" width="8" height="41" fill="#999998"/>
<path d="M274 91L274 83L315 83L315 91L274 91Z" fill="#999998"/>
</svg>
