<svg width="331" height="218" viewBox="0 0 331 218" fill="none" xmlns="http://www.w3.org/2000/svg">
<path d="M311 4H20V171H311V4Z" stroke="#2D2D2D" stroke-width="8"/>
<path d="M93.5625 30.625H101.656C102.677 30.625 103.792 30.6771 105 30.7812C106.229 30.8646 107.448 31.0833 108.656 31.4375C109.885 31.7708 111.062 32.2917 112.188 33C113.333 33.7083 114.344 34.6771 115.219 35.9062C116.094 37.1146 116.792 38.6354 117.312 40.4688C117.854 42.3021 118.125 44.5312 118.125 47.1562V49.0312C118.125 51.8854 117.875 54.3333 117.375 56.375C116.896 58.3958 116.25 60.1042 115.438 61.5C114.625 62.875 113.677 63.9792 112.594 64.8125C111.531 65.6458 110.417 66.2812 109.25 66.7188C108.104 67.1354 106.938 67.4167 105.75 67.5625C104.583 67.6875 103.479 67.75 102.438 67.75H101.656V84H93.5625V30.625ZM102.062 61.8125C103.521 61.8125 104.75 61.6042 105.75 61.1875C106.75 60.75 107.542 60.0833 108.125 59.1875C108.729 58.2708 109.156 57.1042 109.406 55.6875C109.677 54.25 109.812 52.5312 109.812 50.5312V45.7188C109.812 44.1354 109.698 42.7708 109.469 41.625C109.24 40.4583 108.823 39.5 108.219 38.75C107.635 38 106.844 37.4479 105.844 37.0938C104.844 36.7188 103.583 36.5312 102.062 36.5312H101.656V61.8125H102.062ZM137.69 30.625H145.784V84H137.69V30.625ZM179.161 84.5C178.536 84.5 177.807 84.4271 176.974 84.2812C176.14 84.1562 175.276 83.875 174.38 83.4375C173.505 83 172.64 82.3854 171.786 81.5938C170.932 80.7812 170.161 79.7188 169.474 78.4062C168.807 77.0729 168.265 75.4479 167.849 73.5312C167.432 71.5938 167.224 69.2917 167.224 66.625V47.7188C167.224 45.0312 167.442 42.7396 167.88 40.8438C168.317 38.9271 168.901 37.3229 169.63 36.0312C170.359 34.7188 171.192 33.6771 172.13 32.9062C173.088 32.1354 174.078 31.5521 175.099 31.1562C176.12 30.7396 177.13 30.4688 178.13 30.3438C179.13 30.2188 180.057 30.1562 180.911 30.1562C183.078 30.1562 184.901 30.4583 186.38 31.0625C187.88 31.6458 189.088 32.4583 190.005 33.5C190.942 34.5208 191.609 35.7188 192.005 37.0938C192.422 38.4688 192.63 39.9271 192.63 41.4688C192.63 42.6146 192.557 43.6771 192.411 44.6562C192.286 45.6146 192.109 46.6771 191.88 47.8438H185.411V45.3125C185.411 39.4583 183.838 36.5312 180.692 36.5312C179.838 36.5312 179.099 36.6771 178.474 36.9688C177.849 37.2604 177.328 37.7604 176.911 38.4688C176.495 39.1562 176.182 40.0729 175.974 41.2188C175.786 42.3646 175.692 43.7917 175.692 45.5V69.6875C175.692 71.3542 175.786 72.7396 175.974 73.8438C176.182 74.9479 176.484 75.8333 176.88 76.5C177.297 77.1667 177.807 77.6458 178.411 77.9375C179.036 78.2083 179.776 78.3438 180.63 78.3438C181.526 78.3438 182.297 78.1146 182.942 77.6562C183.588 77.1771 184.12 76.5312 184.536 75.7188C184.953 74.9062 185.255 73.9479 185.442 72.8438C185.651 71.7396 185.755 70.5417 185.755 69.25V62.2812H181.599V56.9688H193.63V84H188.255L187.38 78.9375C186.359 80.9167 185.182 82.3438 183.849 83.2188C182.536 84.0729 180.974 84.5 179.161 84.5ZM220.445 30.625H229.757L239.632 84H231.445L229.976 74.4375H220.226L218.82 84H210.601L220.445 30.625ZM229.039 68.3438L225.289 41.75H224.945L221.164 68.3438H229.039Z" fill="#6C975D"/>
<path d="M87.5625 92.625H95.6562V139.625H106.688V146H87.5625V92.625ZM125.065 92.625H133.221V131.75C133.221 133.417 133.305 134.802 133.471 135.906C133.638 137.01 133.898 137.896 134.252 138.562C134.627 139.208 135.096 139.677 135.659 139.969C136.242 140.24 136.93 140.375 137.721 140.375C138.513 140.375 139.2 140.24 139.784 139.969C140.388 139.677 140.877 139.208 141.252 138.562C141.648 137.896 141.94 137.01 142.127 135.906C142.336 134.802 142.44 133.417 142.44 131.75V92.625H150.502V129.594C150.502 132.198 150.294 134.427 149.877 136.281C149.461 138.135 148.909 139.688 148.221 140.938C147.534 142.188 146.742 143.177 145.846 143.906C144.971 144.635 144.055 145.198 143.096 145.594C142.159 145.969 141.221 146.208 140.284 146.312C139.346 146.417 138.492 146.469 137.721 146.469C136.95 146.469 136.096 146.417 135.159 146.312C134.242 146.208 133.315 145.969 132.377 145.594C131.44 145.198 130.534 144.635 129.659 143.906C128.784 143.177 128.002 142.188 127.315 140.938C126.627 139.688 126.075 138.146 125.659 136.312C125.263 134.458 125.065 132.219 125.065 129.594V92.625ZM172.88 92.625H180.974V115.938H181.224L190.474 92.625H198.536L188.224 117.656L199.692 146H191.036L181.224 120.594H180.974V146H172.88V92.625ZM217.57 92.625H225.726V131.75C225.726 133.417 225.81 134.802 225.976 135.906C226.143 137.01 226.403 137.896 226.757 138.562C227.132 139.208 227.601 139.677 228.164 139.969C228.747 140.24 229.435 140.375 230.226 140.375C231.018 140.375 231.705 140.24 232.289 139.969C232.893 139.677 233.382 139.208 233.757 138.562C234.153 137.896 234.445 137.01 234.632 135.906C234.841 134.802 234.945 133.417 234.945 131.75V92.625H243.007V129.594C243.007 132.198 242.799 134.427 242.382 136.281C241.966 138.135 241.414 139.688 240.726 140.938C240.039 142.188 239.247 143.177 238.351 143.906C237.476 144.635 236.56 145.198 235.601 145.594C234.664 145.969 233.726 146.208 232.789 146.312C231.851 146.417 230.997 146.469 230.226 146.469C229.455 146.469 228.601 146.417 227.664 146.312C226.747 146.208 225.82 145.969 224.882 145.594C223.945 145.198 223.039 144.635 222.164 143.906C221.289 143.177 220.507 142.188 219.82 140.938C219.132 139.688 218.58 138.146 218.164 136.312C217.768 134.458 217.57 132.219 217.57 129.594V92.625Z" fill="#6C975D"/>
<path d="M43.91 199.08C45.11 199.46 46.05 200.1 46.73 201C47.41 201.88 47.75 202.97 47.75 204.27C47.75 206.11 47.03 207.53 45.59 208.53C44.17 209.51 42.09 210 39.35 210H28.49V189H38.75C41.31 189 43.27 189.49 44.63 190.47C46.01 191.45 46.7 192.78 46.7 194.46C46.7 195.48 46.45 196.39 45.95 197.19C45.47 197.99 44.79 198.62 43.91 199.08ZM33.32 192.66V197.61H38.15C39.35 197.61 40.26 197.4 40.88 196.98C41.5 196.56 41.81 195.94 41.81 195.12C41.81 194.3 41.5 193.69 40.88 193.29C40.26 192.87 39.35 192.66 38.15 192.66H33.32ZM38.99 206.34C40.27 206.34 41.23 206.13 41.87 205.71C42.53 205.29 42.86 204.64 42.86 203.76C42.86 202.02 41.57 201.15 38.99 201.15H33.32V206.34H38.99ZM65.1995 210.36C63.0195 210.36 61.0495 209.89 59.2895 208.95C57.5495 208.01 56.1795 206.72 55.1795 205.08C54.1995 203.42 53.7095 201.56 53.7095 199.5C53.7095 197.44 54.1995 195.59 55.1795 193.95C56.1795 192.29 57.5495 190.99 59.2895 190.05C61.0495 189.11 63.0195 188.64 65.1995 188.64C67.3795 188.64 69.3395 189.11 71.0795 190.05C72.8195 190.99 74.1895 192.29 75.1895 193.95C76.1895 195.59 76.6895 197.44 76.6895 199.5C76.6895 201.56 76.1895 203.42 75.1895 205.08C74.1895 206.72 72.8195 208.01 71.0795 208.95C69.3395 209.89 67.3795 210.36 65.1995 210.36ZM65.1995 206.22C66.4395 206.22 67.5595 205.94 68.5595 205.38C69.5595 204.8 70.3395 204 70.8995 202.98C71.4795 201.96 71.7695 200.8 71.7695 199.5C71.7695 198.2 71.4795 197.04 70.8995 196.02C70.3395 195 69.5595 194.21 68.5595 193.65C67.5595 193.07 66.4395 192.78 65.1995 192.78C63.9595 192.78 62.8395 193.07 61.8395 193.65C60.8395 194.21 60.0495 195 59.4695 196.02C58.9095 197.04 58.6295 198.2 58.6295 199.5C58.6295 200.8 58.9095 201.96 59.4695 202.98C60.0495 204 60.8395 204.8 61.8395 205.38C62.8395 205.94 63.9595 206.22 65.1995 206.22ZM93.1138 202.56V210H88.2538V202.5L80.1238 189H85.2838L90.8938 198.33L96.5038 189H101.274L93.1138 202.56ZM113.368 210.36C111.708 210.36 110.098 210.14 108.538 209.7C106.998 209.24 105.758 208.65 104.818 207.93L106.468 204.27C107.368 204.93 108.438 205.46 109.678 205.86C110.918 206.26 112.158 206.46 113.398 206.46C114.778 206.46 115.798 206.26 116.458 205.86C117.118 205.44 117.448 204.89 117.448 204.21C117.448 203.71 117.248 203.3 116.848 202.98C116.468 202.64 115.968 202.37 115.348 202.17C114.748 201.97 113.928 201.75 112.888 201.51C111.288 201.13 109.978 200.75 108.958 200.37C107.938 199.99 107.058 199.38 106.318 198.54C105.598 197.7 105.238 196.58 105.238 195.18C105.238 193.96 105.568 192.86 106.228 191.88C106.888 190.88 107.878 190.09 109.198 189.51C110.538 188.93 112.168 188.64 114.088 188.64C115.428 188.64 116.738 188.8 118.018 189.12C119.298 189.44 120.418 189.9 121.378 190.5L119.878 194.19C117.938 193.09 115.998 192.54 114.058 192.54C112.698 192.54 111.688 192.76 111.028 193.2C110.388 193.64 110.068 194.22 110.068 194.94C110.068 195.66 110.438 196.2 111.178 196.56C111.938 196.9 113.088 197.24 114.628 197.58C116.228 197.96 117.538 198.34 118.558 198.72C119.578 199.1 120.448 199.7 121.168 200.52C121.908 201.34 122.278 202.45 122.278 203.85C122.278 205.05 121.938 206.15 121.258 207.15C120.598 208.13 119.598 208.91 118.258 209.49C116.918 210.07 115.288 210.36 113.368 210.36ZM146.155 192.9V198.45H155.875V202.35H146.155V210H141.295V189H157.165V192.9H146.155ZM177.006 205.5H167.256L165.396 210H160.416L169.776 189H174.576L183.966 210H178.866L177.006 205.5ZM175.476 201.81L172.146 193.77L168.816 201.81H175.476ZM196.645 210.36C194.985 210.36 193.375 210.14 191.815 209.7C190.275 209.24 189.035 208.65 188.095 207.93L189.745 204.27C190.645 204.93 191.715 205.46 192.955 205.86C194.195 206.26 195.435 206.46 196.675 206.46C198.055 206.46 199.075 206.26 199.735 205.86C200.395 205.44 200.725 204.89 200.725 204.21C200.725 203.71 200.525 203.3 200.125 202.98C199.745 202.64 199.245 202.37 198.625 202.17C198.025 201.97 197.205 201.75 196.165 201.51C194.565 201.13 193.255 200.75 192.235 200.37C191.215 199.99 190.335 199.38 189.595 198.54C188.875 197.7 188.515 196.58 188.515 195.18C188.515 193.96 188.845 192.86 189.505 191.88C190.165 190.88 191.155 190.09 192.475 189.51C193.815 188.93 195.445 188.64 197.365 188.64C198.705 188.64 200.015 188.8 201.295 189.12C202.575 189.44 203.695 189.9 204.655 190.5L203.155 194.19C201.215 193.09 199.275 192.54 197.335 192.54C195.975 192.54 194.965 192.76 194.305 193.2C193.665 193.64 193.345 194.22 193.345 194.94C193.345 195.66 193.715 196.2 194.455 196.56C195.215 196.9 196.365 197.24 197.905 197.58C199.505 197.96 200.815 198.34 201.835 198.72C202.855 199.1 203.725 199.7 204.445 200.52C205.185 201.34 205.555 202.45 205.555 203.85C205.555 205.05 205.215 206.15 204.535 207.15C203.875 208.13 202.875 208.91 201.535 209.49C200.195 210.07 198.565 210.36 196.645 210.36ZM231.736 189V210H226.876V201.39H217.336V210H212.476V189H217.336V197.28H226.876V189H231.736ZM240.304 189H245.164V210H240.304V189ZM263.918 210.36C261.738 210.36 259.768 209.89 258.008 208.95C256.268 208.01 254.898 206.72 253.898 205.08C252.918 203.42 252.428 201.56 252.428 199.5C252.428 197.44 252.918 195.59 253.898 193.95C254.898 192.29 256.268 190.99 258.008 190.05C259.768 189.11 261.738 188.64 263.918 188.64C266.098 188.64 268.058 189.11 269.798 190.05C271.538 190.99 272.908 192.29 273.908 193.95C274.908 195.59 275.408 197.44 275.408 199.5C275.408 201.56 274.908 203.42 273.908 205.08C272.908 206.72 271.538 208.01 269.798 208.95C268.058 209.89 266.098 210.36 263.918 210.36ZM263.918 206.22C265.158 206.22 266.278 205.94 267.278 205.38C268.278 204.8 269.058 204 269.618 202.98C270.198 201.96 270.488 200.8 270.488 199.5C270.488 198.2 270.198 197.04 269.618 196.02C269.058 195 268.278 194.21 267.278 193.65C266.278 193.07 265.158 192.78 263.918 192.78C262.678 192.78 261.558 193.07 260.558 193.65C259.558 194.21 258.768 195 258.188 196.02C257.628 197.04 257.348 198.2 257.348 199.5C257.348 200.8 257.628 201.96 258.188 202.98C258.768 204 259.558 204.8 260.558 205.38C261.558 205.94 262.678 206.22 263.918 206.22ZM301.92 189V210H297.93L287.46 197.25V210H282.66V189H286.68L297.12 201.75V189H301.92Z" fill="#6C975D"/>
<rect x="307" y="67" width="8" height="41" fill="#669159"/>
<path d="M290 91L290 83L331 83L331 91L290 91Z" fill="#669159"/>
</svg>
